REM DIRINDEX 1\2,1\4,1\3\5,1\3\6
REM DIRNAME cjc035,folder01,folder02,folder03,folder04,folder05
TITLE ""
FILE "Track13.mp3" MP3
  TRACK 01 AUDIO
    TITLE "4:cjc035_0358"
    INDEX 01 00:00:00
  TRACK 02 AUDIO
    TITLE "5:cjc035_0359"
    INDEX 01 00:19:73
  TRACK 03 AUDIO
    TITLE "6:cjc035_0360"
    INDEX 01 00:21:33
  TRACK 04 AUDIO
    TITLE "5:cjc035_0361"
    INDEX 01 00:22:74
  TRACK 05 AUDIO
    TITLE "6:cjc035_0362"
    INDEX 01 00:24:33
  TRACK 06 AUDIO
    TITLE "5:cjc035_0363"
    INDEX 01 00:25:74
  TRACK 07 AUDIO
    TITLE "6:cjc035_0364"
    INDEX 01 00:27:32
  TRACK 08 AUDIO
    TITLE "5:cjc035_0365"
    INDEX 01 00:29:03
  TRACK 09 AUDIO
    TITLE "6:cjc035_0366"
    INDEX 01 00:30:28
  TRACK 10 AUDIO
    TITLE "5:cjc035_0367"
    INDEX 01 00:31:67
  TRACK 11 AUDIO
    TITLE "6:cjc035_0368"
    INDEX 01 00:33:24
  TRACK 12 AUDIO
    TITLE "5:cjc035_0369"
    INDEX 01 00:34:61
  TRACK 13 AUDIO
    TITLE "6:cjc035_0370"
    INDEX 01 00:36:15
  TRACK 14 AUDIO
    TITLE "5:cjc035_0371"
    INDEX 01 00:37:59
  TRACK 15 AUDIO
    TITLE "6:cjc035_0372"
    INDEX 01 00:39:23
  TRACK 16 AUDIO
    TITLE "5:cjc035_0373"
    INDEX 01 00:40:60
  TRACK 17 AUDIO
    TITLE "6:cjc035_0374"
    INDEX 01 00:42:27
  TRACK 18 AUDIO
    TITLE "5:cjc035_0375"
    INDEX 01 00:43:70
  TRACK 19 AUDIO
    TITLE "6:cjc035_0376"
    INDEX 01 00:45:39
  TRACK 20 AUDIO
    TITLE "5:cjc035_0377"
    INDEX 01 00:47:15
  TRACK 21 AUDIO
    TITLE "6:cjc035_0378"
    INDEX 01 00:48:55
  TRACK 22 AUDIO
    TITLE "5:cjc035_0379"
    INDEX 01 00:50:19
  TRACK 23 AUDIO
    TITLE "6:cjc035_0380"
    INDEX 01 00:51:63
  TRACK 24 AUDIO
    TITLE "5:cjc035_0381"
    INDEX 01 00:53:33
  TRACK 25 AUDIO
    TITLE "6:cjc035_0382"
    INDEX 01 00:55:08
  TRACK 26 AUDIO
    TITLE "5:cjc035_0383"
    INDEX 01 00:56:53
  TRACK 27 AUDIO
    TITLE "6:cjc035_0384"
    INDEX 01 00:58:17
  TRACK 28 AUDIO
    TITLE "5:cjc035_0385"
    INDEX 01 00:59:63
  TRACK 29 AUDIO
    TITLE "6:cjc035_0386"
    INDEX 01 01:01:34
  TRACK 30 AUDIO
    TITLE "5:cjc035_0387"
    INDEX 01 01:03:04
  TRACK 31 AUDIO
    TITLE "6:cjc035_0388"
    INDEX 01 01:04:52
  TRACK 32 AUDIO
    TITLE "5:cjc035_0389"
    INDEX 01 01:06:12
  TRACK 33 AUDIO
    TITLE "6:cjc035_0390"
    INDEX 01 01:07:59
  TRACK 34 AUDIO
    TITLE "5:cjc035_0391"
    INDEX 01 01:09:34
  TRACK 35 AUDIO
    TITLE "6:cjc035_0392"
    INDEX 01 01:11:03
  TRACK 36 AUDIO
    TITLE "5:cjc035_0393"
    INDEX 01 01:12:50
  TRACK 37 AUDIO
    TITLE "6:cjc035_0394"
    INDEX 01 01:14:19
  TRACK 38 AUDIO
    TITLE "5:cjc035_0395"
    INDEX 01 01:15:66
  TRACK 39 AUDIO
    TITLE "6:cjc035_0396"
    INDEX 01 01:17:39
  TRACK 40 AUDIO
    TITLE "5:cjc035_0397"
    INDEX 01 01:19:17
  TRACK 41 AUDIO
    TITLE "6:cjc035_0398"
    INDEX 01 01:20:67
  TRACK 42 AUDIO
    TITLE "5:cjc035_0399"
    INDEX 01 01:22:41
  TRACK 43 AUDIO
    TITLE "6:cjc035_0400"
    INDEX 01 01:24:12
  TRACK 44 AUDIO
    TITLE "5:cjc035_0401"
    INDEX 01 01:25:68
  TRACK 45 AUDIO
    TITLE "6:cjc035_0402"
    INDEX 01 01:27:40
  TRACK 46 AUDIO
    TITLE "5:cjc035_0403"
    INDEX 01 01:29:07
  TRACK 47 AUDIO
    TITLE "6:cjc035_0404"
    INDEX 01 01:30:52
  TRACK 48 AUDIO
    TITLE "5:cjc035_0405"
    INDEX 01 01:32:21
  TRACK 49 AUDIO
    TITLE "6:cjc035_0406"
    INDEX 01 01:33:68
  TRACK 50 AUDIO
    TITLE "5:cjc035_0407"
    INDEX 01 01:35:43
  TRACK 51 AUDIO
    TITLE "6:cjc035_0408"
    INDEX 01 01:37:13
  TRACK 52 AUDIO
    TITLE "5:cjc035_0409"
    INDEX 01 01:38:63
  TRACK 53 AUDIO
    TITLE "6:cjc035_0410"
    INDEX 01 01:40:29
  TRACK 54 AUDIO
    TITLE "5:cjc035_0411"
    INDEX 01 01:41:69
  TRACK 55 AUDIO
    TITLE "6:cjc035_0412"
    INDEX 01 01:43:41
  TRACK 56 AUDIO
    TITLE "5:cjc035_0413"
    INDEX 01 01:45:22
  TRACK 57 AUDIO
    TITLE "6:cjc035_0414"
    INDEX 01 01:47:03
  TRACK 58 AUDIO
    TITLE "5:cjc035_0415"
    INDEX 01 01:48:71
  TRACK 59 AUDIO
    TITLE "6:cjc035_0416"
    INDEX 01 01:50:54
  TRACK 60 AUDIO
    TITLE "5:cjc035_0417"
    INDEX 01 01:52:30
  TRACK 61 AUDIO
    TITLE "6:cjc035_0418"
    INDEX 01 01:54:09
  TRACK 62 AUDIO
    TITLE "5:cjc035_0419"
    INDEX 01 01:55:65
  TRACK 63 AUDIO
    TITLE "6:cjc035_0420"
    INDEX 01 01:57:41
  TRACK 64 AUDIO
    TITLE "0:"
    INDEX 01 01:59:42
